<svg xmlns="http://www.w3.org/2000/svg" width="20" height="20" viewBox="0 0 20 20">
  <g id="그룹_21985" data-name="그룹 21985" transform="translate(-1494 -447)">
    <rect id="사각형_8699" data-name="사각형 8699" width="20" height="20" transform="translate(1494 447)" fill="#fff" opacity="0"/>
    <path id="file-excel-2-fill" d="M2.58,2.293,11.072,1.08a.338.338,0,0,1,.382.287.342.342,0,0,1,0,.048V15.5a.338.338,0,0,1-.338.338.342.342,0,0,1-.048,0L2.58,14.619A.676.676,0,0,1,2,13.95V2.962A.676.676,0,0,1,2.58,2.293Zm9.553.083h2.7a.676.676,0,0,1,.676.676V13.86a.676.676,0,0,1-.676.676h-2.7ZM7.539,8.456l1.891-2.7H7.81L6.729,7.3,5.648,5.754H4.027l1.891,2.7-1.891,2.7H5.648L6.729,9.614,7.81,11.158H9.431Z" transform="translate(1495.245 448.544)" fill="#fff"/>
  </g>
</svg>
