<svg id="구성_요소_43_8" data-name="구성 요소 43 – 8" xmlns="http://www.w3.org/2000/svg" width="32" height="32" viewBox="0 0 32 32">
  <rect id="사각형_8833" data-name="사각형 8833" width="32" height="32" fill="none"/>
  <path id="빼기_2" data-name="빼기 2" d="M24957.252,23038h-14a.753.753,0,0,1-.75-.75V23024h-2v-1.5h5v-3.252a.754.754,0,0,1,.752-.752h8a.753.753,0,0,1,.75.752v3.252h5v1.5H24958v13.25A.749.749,0,0,1,24957.252,23038Zm-13.25-14v12.5h12.5V23024H24944Zm2.994-4v2.508h6.5V23020h-6.5Zm6,13.006h-1.5v-5.5h1.5v5.5Zm-4,0h-1.5v-5.5h1.5v5.5Z" transform="translate(-24934.25 -23012.25)" fill="#fff"/>
</svg>
